<svg width="69" height="103" viewBox="0 0 69 103" fill="none" xmlns="http://www.w3.org/2000/svg">
<path d="M34.3974 26.8154L0.0078125 12.1832L34.4733 0L68.6214 12.2178L34.3974 26.8154Z" fill="#71E2DF"/>
<path d="M34.4793 82.1136L0.0551758 67.5367L0.151776 58.363L34.4724 72.9191L34.4793 82.1136Z" fill="#15C2C4"/>
<path d="M67.3369 18.721L68.8825 12.1693L34.4723 0L34.4102 26.8154L35.8799 26.1859L34.4585 52.6484L68.2891 64.6863L68.7031 27.528L67.3369 18.721Z" fill="#15C2C4"/>
<path d="M41.9727 65.558L22.4526 58.0724L22.011 11.7335L41.883 20.5958L41.9727 65.558Z" fill="#15ADA9"/>
<path d="M34.4725 16.7147L19.4167 10.4467L34.4725 5.55542L48.8659 10.6058L34.4725 16.7147Z" fill="white"/>
<path d="M48.8658 10.6058L49.1625 62.3687L42.0072 65.558L41.7795 21.2531L34.4931 24.3594L34.4724 16.7147L48.8658 10.6058Z" fill="#A5EFEB"/>
<path d="M34.4725 16.7147L34.4932 24.3594L19.6927 18.2367L19.4167 10.4467L34.4725 16.7147Z" fill="#15C2C4"/>
<path d="M68.8689 12.1693L34.5 26.7946V52.7038L60.3612 41.1294L60.4716 61.8429L34.5138 72.9122V82.1066L69 67.0247L68.8689 12.1693ZM42.918 41.4269V31.1048L60.5958 23.5776L60.6441 33.9551L42.918 41.4269Z" fill="#71E2DF"/>
<path d="M34.4724 26.7947L34.4586 52.7107L0.0138 37.3382L0 12.1832L34.4724 26.7947Z" fill="#15C2C4"/>
<path d="M34.2448 87.0878H30.7189H27.6277H24.1018V90.1872H27.6277V103H30.7189V90.1872H34.2448V87.0878Z" fill="#15C2C4"/>
<path d="M55.7864 87.0878H48.7346V97.2509H55.7864V99.9075H48.7346V103H58.8707V87.0878H55.7864ZM55.7864 94.1584H51.8189V90.1803H55.7864V94.1584Z" fill="#15C2C4"/>
<path d="M40.7239 87.0878H38.9575V90.1872H40.7239V103H43.8082V90.1872V87.0878H40.7239Z" fill="#15C2C4"/>
<path d="M20.2721 90.1872V87.0878H16.7462H13.6551H10.1292V90.1872H13.6551V99.9075H10.1292V103H13.6551H16.7462H20.2721V99.9075H16.7462V90.1872H20.2721Z" fill="#15C2C4"/>
</svg>
